<?xml version="1.0" encoding="UTF-8" standalone="no"?>
<!-- Created with Inkscape (http://www.inkscape.org/) -->

<svg
   xmlns:dc="http://purl.org/dc/elements/1.1/"
   xmlns:cc="http://creativecommons.org/ns#"
   xmlns:rdf="http://www.w3.org/1999/02/22-rdf-syntax-ns#"
   xmlns:svg="http://www.w3.org/2000/svg"
   xmlns="http://www.w3.org/2000/svg"
   xmlns:sodipodi="http://sodipodi.sourceforge.net/DTD/sodipodi-0.dtd"
   xmlns:inkscape="http://www.inkscape.org/namespaces/inkscape"
   width="64mm"
   height="64mm"
   viewBox="0 0 64 64"
   version="1.1"
   id="svg7127"
   sodipodi:docname="factory.svg"
   inkscape:version="0.92.4 (5da689c313, 2019-01-14)">
  <defs
     id="defs7121">
    <clipPath
       clipPathUnits="userSpaceOnUse"
       id="clipPath7771">
      <ellipse
         style="opacity:1;fill:#ff0000;fill-opacity:0.45226129;stroke:none;stroke-width:0.80597752;stroke-linecap:round;stroke-linejoin:round;stroke-miterlimit:4;stroke-dasharray:none;stroke-dashoffset:0;stroke-opacity:1;paint-order:markers fill stroke"
         id="ellipse7773"
         cx="94.747047"
         cy="262.78949"
         rx="15.501633"
         ry="14.833457" />
    </clipPath>
  </defs>
  <sodipodi:namedview
     id="base"
     pagecolor="#b6b6b6"
     bordercolor="#666666"
     borderopacity="1.0"
     inkscape:pageopacity="0"
     inkscape:pageshadow="2"
     inkscape:zoom="2.8"
     inkscape:cx="94.974825"
     inkscape:cy="115.12697"
     inkscape:document-units="mm"
     inkscape:current-layer="g7799"
     showgrid="false"
     showguides="true"
     inkscape:guide-bbox="true"
     inkscape:snap-global="false"
     inkscape:window-width="1920"
     inkscape:window-height="1001"
     inkscape:window-x="-9"
     inkscape:window-y="-9"
     inkscape:window-maximized="1" />
  <metadata
     id="metadata7124">
    <rdf:RDF>
      <cc:Work
         rdf:about="">
        <dc:format>image/svg+xml</dc:format>
        <dc:type
           rdf:resource="http://purl.org/dc/dcmitype/StillImage" />
        <dc:title></dc:title>
      </cc:Work>
    </rdf:RDF>
  </metadata>
  <g
     inkscape:label="Layer 1"
     inkscape:groupmode="layer"
     id="layer1"
     transform="translate(0,-233)">
    <g
       id="g7799"
       transform="matrix(1.0602545,0,0,1.0602545,-4.05077,-14.483829)"
       style="fill:#ffffff">
      <rect
         y="272.49911"
         x="13.303523"
         height="3.2484832"
         width="2.6814451"
         id="rect7814"
         style="opacity:1;fill:#ffffff;fill-opacity:1;stroke:none;stroke-width:0.08126726;stroke-linecap:round;stroke-linejoin:round;stroke-miterlimit:4;stroke-dasharray:none;stroke-dashoffset:0;stroke-opacity:1;paint-order:markers fill stroke" />
      <rect
         style="opacity:1;fill:#ffffff;fill-opacity:1;stroke:none;stroke-width:0.59955281;stroke-linecap:round;stroke-linejoin:round;stroke-miterlimit:4;stroke-dasharray:none;stroke-dashoffset:0;stroke-opacity:1;paint-order:markers fill stroke"
         id="rect7810"
         width="49.316345"
         height="9.6135168"
         x="8.5139933"
         y="281.51099" />
      <path
         transform="matrix(1.2834798,0,0,1.2834798,-78.203265,-83.79286)"
         clip-path="url(#clipPath7771)"
         inkscape:connector-curvature="0"
         id="path7059"
         d="m 93.438599,289.21126 c -0.576131,-0.0251 -1.169917,-0.064 -1.31954,-0.0864 -0.52379,-0.0786 -1.029016,-0.43622 -1.26671,-0.89676 -0.04561,-0.0884 -0.137128,-0.41176 -0.203362,-0.71862 -0.101642,-0.47076 -0.67986,-3.71592 -0.802563,-4.50399 l -0.03839,-0.24629 -0.567987,-0.18707 c -1.046271,-0.3446 -2.379337,-0.88747 -3.469239,-1.41282 -0.594385,-0.28649 -1.114835,-0.5209 -1.156546,-0.5209 -0.04172,0 -0.572836,0.35169 -1.180281,0.78154 -1.877252,1.32841 -2.932777,2.03398 -3.282,2.19386 -0.304938,0.13961 -0.379683,0.15025 -0.831181,0.11839 -0.381247,-0.0269 -0.554549,-0.0692 -0.748612,-0.18299 -0.302564,-0.17732 -2.763296,-2.57125 -3.531258,-3.4354 -0.624549,-0.70278 -0.835774,-1.05295 -0.884792,-1.46683 -0.07359,-0.62136 0.162358,-1.04742 1.970557,-3.55821 l 1.226459,-1.70301 -0.46039,-0.91942 c -0.605522,-1.20927 -0.86987,-1.84111 -1.346414,-3.21814 -0.285488,-0.82495 -0.426031,-1.15483 -0.505877,-1.18739 -0.06081,-0.0248 -0.797671,-0.1664 -1.637468,-0.31466 -3.169513,-0.55959 -3.621529,-0.67069 -4.043689,-0.99391 -0.280036,-0.2144 -0.601005,-0.8047 -0.684442,-1.25877 -0.07116,-0.38726 -0.07225,-2.59231 -0.002,-4.27805 0.04713,-1.1327 0.06491,-1.27527 0.194086,-1.55627 0.404085,-0.87902 0.631523,-0.96343 4.170236,-1.54774 l 2.041899,-0.33715 0.284771,-0.88595 c 0.374322,-1.16453 0.918095,-2.50034 1.456609,-3.57824 0.432372,-0.86542 0.434791,-0.87287 0.333901,-1.02771 -0.05589,-0.0858 -0.432609,-0.6183 -0.837144,-1.18337 -1.192817,-1.66617 -2.115523,-3.10475 -2.218567,-3.45895 -0.238348,-0.81929 0.03946,-1.24698 2.237601,-3.44489 1.734288,-1.73408 2.23796,-2.11595 2.87804,-2.18201 0.638227,-0.0659 1.050732,0.15471 3.029537,1.61996 0.53168,0.39371 1.240246,0.9168 1.574577,1.16243 l 0.607878,0.44661 1.095206,-0.53393 c 1.189957,-0.5801 2.151009,-0.97901 3.332067,-1.38305 0.417021,-0.14265 0.797869,-0.27587 0.846315,-0.29602 0.06469,-0.0268 0.164658,-0.47554 0.376332,-1.68883 0.543719,-3.1167 0.701297,-3.75675 1.023712,-4.15802 0.271837,-0.33834 0.566644,-0.4662 1.221681,-0.52991 0.757013,-0.0736 4.476361,-0.0736 5.175285,4e-5 0.656349,0.0691 0.864394,0.14985 1.211895,0.47018 0.417666,0.38499 0.489725,0.63732 0.913725,3.19962 0.215479,1.30214 0.451974,2.5541 0.489584,2.59172 0.0296,0.0296 1.06796,0.41518 1.48004,0.54957 0.84219,0.27465 1.90895,0.72346 2.89084,1.21623 0.8654,0.43431 1.03087,0.49874 1.14517,0.44585 0.0735,-0.034 0.55645,-0.3598 1.07325,-0.72399 1.27395,-0.89777 2.42899,-1.68032 2.99421,-2.0286 l 0.46894,-0.28896 h 0.5345 c 0.51989,0 0.54364,0.006 0.86739,0.22101 0.40376,0.26809 3.05442,2.865 3.65778,3.58363 0.57836,0.68884 0.74689,1.02483 0.74394,1.48316 -0.003,0.54643 -0.19222,0.8655 -2.05154,3.46881 -0.62533,0.87554 -1.13697,1.60626 -1.13697,1.62383 0,0.0175 0.2276,0.51685 0.50578,1.10954 0.5691,1.21256 1.1205,2.56301 1.31524,3.22117 0.0717,0.24225 0.19318,0.56468 0.27,0.71651 0.16918,0.3344 0.11919,0.31766 1.90243,0.63722 3.14921,0.56435 3.54314,0.66334 3.93887,0.98976 0.27047,0.22309 0.55569,0.76313 0.63675,1.2056 0.0741,0.4044 0.0797,2.78381 0.01,4.40843 -0.0565,1.32497 -0.13104,1.57059 -0.60628,1.99788 -0.40845,0.36722 -0.83748,0.47955 -3.80359,0.99585 -0.85594,0.14899 -1.65914,0.2898 -1.78486,0.31292 l -0.22858,0.0421 -0.33558,0.96839 c -0.46125,1.3311 -0.73204,1.98649 -1.34837,3.2634 -0.29097,0.60286 -0.51136,1.12592 -0.48973,1.16236 0.0216,0.0364 0.3829,0.55516 0.80283,1.15271 1.16954,1.66422 1.95537,2.85302 2.15795,3.26453 0.15938,0.32374 0.18025,0.41965 0.15808,0.72621 -0.022,0.30368 -0.0657,0.41304 -0.31201,0.77991 -0.34741,0.51749 -3.58549,3.7745 -4.10196,4.12594 -0.30932,0.21047 -0.38646,0.23596 -0.77323,0.2555 -0.24282,0.0122 -0.52411,-0.01 -0.6469,-0.05 -0.27256,-0.09 -1.80678,-1.11778 -3.3552,-2.24773 -0.65131,-0.4753 -1.21325,-0.86418 -1.24873,-0.86418 -0.0355,0 -0.43782,0.18701 -0.89408,0.41557 -1.03634,0.51915 -1.82289,0.84393 -3.2699,1.35017 -0.62441,0.21846 -1.14789,0.40979 -1.16329,0.42519 -0.0154,0.0154 -0.133215,0.60565 -0.26181,1.31166 -0.461563,2.534 -0.713071,3.75484 -0.830461,4.03089 -0.15253,0.3587 -0.594871,0.75896 -1.03119,0.93308 -0.31691,0.12647 -0.419785,0.13412 -1.920473,0.14284 -0.872101,0.006 -2.05701,-0.0113 -2.633131,-0.0365 z m 2.956125,-9.86714 c 2.841709,-0.25469 5.477706,-1.18134 7.851196,-2.75993 0.82184,-0.54661 1.36408,-0.99723 2.21907,-1.8441 1.16584,-1.15478 1.92033,-2.07094 2.56642,-3.11638 1.20924,-1.95666 1.99403,-4.0744 2.3504,-6.34253 0.1749,-1.11319 0.18964,-3.61449 0.0277,-4.69818 -0.44825,-2.99956 -1.644,-5.77304 -3.48143,-8.07497 -0.54174,-0.67869 -1.86812,-1.99801 -2.5481,-2.53452 -1.90898,-1.50622 -4.14743,-2.61672 -6.489359,-3.21943 -1.418953,-0.36517 -4.91541,-0.52846 -6.292651,-0.29388 -5.921645,1.00863 -10.578866,4.61763 -12.84399,9.95317 -0.634209,1.4939 -1.083476,3.21972 -1.208144,4.64098 -0.07701,0.87769 -0.07856,2.20473 -0.0044,3.31655 0.07601,1.13342 0.14524,1.58617 0.382202,2.49964 0.580293,2.23688 1.572048,4.26281 3.016787,6.16262 0.529949,0.69687 2.005736,2.19815 2.70851,2.75529 1.460418,1.15778 3.300686,2.16415 5.008785,2.73909 1.190656,0.40079 2.876807,0.75063 4.035196,0.83724 0.621182,0.0464 2.077029,0.0353 2.701441,-0.0206 z m -5.079903,-4.19167 c -0.870128,-0.27822 -2.368086,-1.02188 -2.590267,-1.28593 -0.143076,-0.17002 -0.152763,-0.21486 -0.122625,-0.56772 0.01797,-0.2107 0.126964,-0.81912 0.242154,-1.35205 l 0.209443,-0.96894 -1.022602,-1.02259 -1.022592,-1.02259 -0.929926,0.22141 c -1.127629,0.26849 -1.808066,0.32964 -2.032378,0.18266 -0.256469,-0.16804 -1.115778,-1.98986 -1.276187,-2.7056 -0.133499,-0.59575 0.02685,-0.78411 1.381191,-1.6218 l 0.968075,-0.59882 v -1.39407 -1.39407 l -0.660674,-0.42439 c -1.064646,-0.68387 -1.550332,-1.05146 -1.661151,-1.25723 -0.178317,-0.33112 -0.09598,-0.75813 0.35536,-1.84272 0.755692,-1.81602 0.790312,-1.83493 2.604082,-1.42252 0.431435,0.0981 0.859509,0.17835 0.951264,0.17835 0.209454,0 0.59788,-0.32279 1.574433,-1.3084 l 0.726121,-0.73286 -0.248214,-1.02014 c -0.136517,-0.56107 -0.261728,-1.18086 -0.27824,-1.37731 -0.02963,-0.35274 -0.02719,-0.35995 0.197448,-0.57892 0.372914,-0.36352 2.428472,-1.28126 2.883055,-1.28719 0.304438,-0.004 0.581713,0.27764 1.26843,1.28831 0.3494,0.51424 0.655603,0.97022 0.680436,1.01328 0.03584,0.062 0.341334,0.0774 1.473413,0.074 0.78554,-0.002 1.432311,-0.0112 1.437272,-0.0195 0.0044,-0.009 0.268574,-0.41944 0.585806,-0.91344 0.635299,-0.98927 0.980139,-1.38813 1.25171,-1.44777 0.228473,-0.0502 0.845994,0.15373 1.843382,0.6087 1.1249,0.51314 1.26749,0.6082 1.34519,0.89671 0.0762,0.28325 -0.0171,0.93071 -0.29471,2.04443 l -0.16836,0.67536 1.03927,1.04393 1.03927,1.04392 0.84982,-0.20381 c 1.27337,-0.3054 1.61379,-0.355 1.88289,-0.27438 0.36285,0.10874 0.56281,0.43521 1.13771,1.85768 0.36974,0.91488 0.44203,1.24729 0.32059,1.47421 -0.0926,0.17316 -0.87668,0.77228 -1.74259,1.33166 l -0.60197,0.38884 2.3e-4,0.6037 c 1.2e-4,0.33202 0.0175,0.97367 0.0386,1.42586 l 0.0384,0.82219 0.81957,0.52365 c 1.44527,0.92343 1.65587,1.15413 1.51937,1.66446 -0.0932,0.34862 -0.71689,1.81344 -0.99364,2.33387 -0.19026,0.35778 -0.24907,0.42113 -0.45352,0.48849 -0.28888,0.0952 -0.74341,0.0374 -1.93799,-0.24646 -0.45219,-0.10742 -0.8486,-0.17914 -0.88091,-0.15935 -0.0323,0.0197 -0.48738,0.472 -1.0113,1.00488 l -0.95258,0.96887 0.20529,0.85107 c 0.11698,0.48494 0.2207,1.0926 0.2411,1.41256 l 0.0358,0.56151 -0.1773,0.20194 c -0.2948,0.33576 -2.107464,1.14736 -2.709516,1.21317 -0.56203,0.0615 -0.785143,-0.15328 -1.706803,-1.64255 L 96.5579,272.76895 h -0.571428 c -0.314291,0 -0.968785,0.0172 -1.454426,0.0382 l -0.882989,0.0382 -0.475354,0.77105 c -0.985575,1.59863 -1.174645,1.75487 -1.858899,1.53608 z m 4.357654,-6.14338 c 2.104271,-0.26386 3.882866,-1.50767 4.851955,-3.39306 0.88519,-1.72221 0.90377,-3.65688 0.0522,-5.43345 -0.887076,-1.85051 -2.440183,-3.01239 -4.57196,-3.42026 -1.191135,-0.22791 -2.827629,0.0445 -3.895538,0.64851 -1.625721,0.91945 -2.614025,2.20084 -3.100076,4.0194 -0.129006,0.48269 -0.150488,0.68689 -0.151809,1.44316 -0.0011,0.77425 0.01764,0.95199 0.156336,1.46817 0.297614,1.10711 0.852985,2.07027 1.657822,2.87511 1.350898,1.3509 3.209586,2.01705 5.001128,1.79242 z"
         style="fill:#003957;fill-opacity:1;stroke-width:0.05872715" />
      <rect
         y="260.65134"
         x="15.635268"
         height="22.784725"
         width="33.876411"
         id="rect7775"
         style="opacity:1;fill:#ffffff;fill-opacity:1;stroke:none;stroke-width:0.76499999;stroke-linecap:round;stroke-linejoin:round;stroke-miterlimit:4;stroke-dasharray:none;stroke-dashoffset:0;stroke-opacity:1;paint-order:markers fill stroke" />
      <g
         style="fill:#ffffff;stroke:#003957;stroke-opacity:1"
         transform="matrix(1.7841846,0,0,1.7841846,-46.023136,-215.96046)"
         id="g7740">
        <path
           style="fill:#ffffff;stroke:#003957;stroke-width:0.76499999;stroke-linecap:round;stroke-linejoin:miter;stroke-miterlimit:4;stroke-dasharray:none;stroke-opacity:1"
           d="m 28.678944,284.38505 30.474329,-0.0472"
           id="path7685"
           inkscape:connector-curvature="0" />
        <path
           sodipodi:nodetypes="ccc"
           style="fill:#ffffff;stroke:#003957;stroke-width:0.76499999;stroke-linecap:round;stroke-linejoin:round;stroke-miterlimit:4;stroke-dasharray:none;stroke-opacity:1"
           d="m 30.1436,284.3378 v -8.45722 h 10.034082"
           id="path7687"
           inkscape:connector-curvature="0" />
        <path
           style="fill:#ffffff;stroke:#003957;stroke-width:0.76499999;stroke-linecap:round;stroke-linejoin:round;stroke-miterlimit:4;stroke-dasharray:none;stroke-opacity:1"
           d="m 32.931176,275.83333 v -14.88281 l 7.370535,0.0945 -0.04725,4.11049 h 1.653645 v 1.86171"
           id="path7689"
           inkscape:connector-curvature="0"
           sodipodi:nodetypes="cccccc" />
        <path
           style="fill:#ffffff;stroke:#003957;stroke-width:0.76499999;stroke-linecap:round;stroke-linejoin:miter;stroke-miterlimit:4;stroke-dasharray:none;stroke-opacity:1"
           d="m 39.026041,267.09264 14.410343,0.0472"
           id="path7691"
           inkscape:connector-curvature="0" />
        <path
           sodipodi:nodetypes="cc"
           style="fill:#ffffff;stroke:#003957;stroke-width:0.76499999;stroke-linecap:round;stroke-linejoin:miter;stroke-miterlimit:4;stroke-dasharray:none;stroke-opacity:1"
           d="m 34.377108,260.8667 0.01873,-3.31796"
           id="path7693"
           inkscape:connector-curvature="0" />
        <path
           sodipodi:nodetypes="cc"
           style="fill:#ffffff;stroke:#003957;stroke-width:0.76499999;stroke-linecap:round;stroke-linejoin:miter;stroke-miterlimit:4;stroke-dasharray:none;stroke-opacity:1"
           d="m 36.049479,260.85603 0.0075,-1.70089"
           id="path7695"
           inkscape:connector-curvature="0" />
        <path
           sodipodi:nodetypes="cc"
           style="fill:#ffffff;stroke:#003957;stroke-width:0.76499999;stroke-linecap:round;stroke-linejoin:miter;stroke-miterlimit:4;stroke-dasharray:none;stroke-opacity:1"
           d="m 44.364954,267.18713 0.0014,1.32292"
           id="path7697"
           inkscape:connector-curvature="0" />
        <path
           sodipodi:nodetypes="cc"
           style="fill:#ffffff;stroke:#003957;stroke-width:0.76499999;stroke-linecap:round;stroke-linejoin:miter;stroke-miterlimit:4;stroke-dasharray:none;stroke-opacity:1"
           d="m 53.436384,267.13984 -0.0089,1.18122"
           id="path7699"
           inkscape:connector-curvature="0" />
        <path
           style="fill:#ffffff;stroke:#003957;stroke-width:0.76499999;stroke-linecap:round;stroke-linejoin:miter;stroke-miterlimit:4;stroke-dasharray:none;stroke-opacity:1"
           d="m 41.813614,268.41555 -0.0086,1.63695"
           id="path7701"
           inkscape:connector-curvature="0"
           sodipodi:nodetypes="cc" />
        <path
           style="fill:#ffffff;stroke:#003957;stroke-width:0.76499999;stroke-linecap:round;stroke-linejoin:round;stroke-miterlimit:4;stroke-dasharray:none;stroke-opacity:1"
           d="m 43.291779,269.85116 0.03915,-1.30908 2.109413,-0.0224 0.0167,1.29811"
           id="path7703"
           inkscape:connector-curvature="0"
           sodipodi:nodetypes="cccc" />
        <rect
           style="opacity:1;fill:#ffffff;fill-opacity:1;stroke:#003957;stroke-width:1.26499999;stroke-linecap:round;stroke-linejoin:round;stroke-miterlimit:4;stroke-dasharray:none;stroke-dashoffset:0;stroke-opacity:1;paint-order:markers fill stroke"
           id="rect7707"
           width="7.8430057"
           height="12.567708"
           x="40.401367"
           y="270.3428" />
        <rect
           y="270.3428"
           x="49.756279"
           height="12.567708"
           width="7.8430057"
           id="rect7711"
           style="opacity:1;fill:#ffffff;fill-opacity:1;stroke:#003957;stroke-width:1.26499999;stroke-linecap:round;stroke-linejoin:round;stroke-miterlimit:4;stroke-dasharray:none;stroke-dashoffset:0;stroke-opacity:1;paint-order:markers fill stroke" />
        <path
           style="fill:#ffffff;stroke:#003957;stroke-width:0.76499999;stroke-linecap:round;stroke-linejoin:miter;stroke-miterlimit:4;stroke-dasharray:none;stroke-opacity:1"
           d="m 40.585194,274.36868 h 7.654017"
           id="path7713"
           inkscape:connector-curvature="0" />
        <path
           inkscape:connector-curvature="0"
           id="path7715"
           d="m 40.726935,278.71541 h 7.654017"
           style="fill:#ffffff;stroke:#003957;stroke-width:0.76499999;stroke-linecap:round;stroke-linejoin:miter;stroke-miterlimit:4;stroke-dasharray:none;stroke-opacity:1" />
        <path
           style="fill:#ffffff;stroke:#003957;stroke-width:0.76499999;stroke-linecap:round;stroke-linejoin:miter;stroke-miterlimit:4;stroke-dasharray:none;stroke-opacity:1"
           d="m 49.940105,274.41593 h 7.654017"
           id="path7717"
           inkscape:connector-curvature="0" />
        <path
           inkscape:connector-curvature="0"
           id="path7719"
           d="m 49.514882,278.71541 h 7.654017"
           style="fill:#ffffff;stroke:#003957;stroke-width:0.76499999;stroke-linecap:round;stroke-linejoin:miter;stroke-miterlimit:4;stroke-dasharray:none;stroke-opacity:1" />
        <path
           sodipodi:nodetypes="cccc"
           inkscape:connector-curvature="0"
           id="path7721"
           d="m 52.425593,269.85116 0.03915,-1.30908 2.109413,-0.0224 0.0167,1.29811"
           style="fill:#ffffff;stroke:#003957;stroke-width:0.76499999;stroke-linecap:round;stroke-linejoin:round;stroke-miterlimit:4;stroke-dasharray:none;stroke-opacity:1" />
      </g>
      <rect
         style="opacity:1;fill:#ffffff;fill-opacity:1;stroke:none;stroke-width:0.72152489;stroke-linecap:round;stroke-linejoin:round;stroke-miterlimit:4;stroke-dasharray:none;stroke-dashoffset:0;stroke-opacity:1;paint-order:markers fill stroke"
         id="rect7812"
         width="5.3567114"
         height="2.3317449"
         x="27.768215"
         y="275.82141" />
    </g>
  </g>
</svg>
