<?xml version="1.0" encoding="UTF-8" standalone="no"?>
<!-- Created with Inkscape (http://www.inkscape.org/) -->

<svg
   xmlns:dc="http://purl.org/dc/elements/1.1/"
   xmlns:cc="http://creativecommons.org/ns#"
   xmlns:rdf="http://www.w3.org/1999/02/22-rdf-syntax-ns#"
   xmlns:svg="http://www.w3.org/2000/svg"
   xmlns="http://www.w3.org/2000/svg"
   xmlns:sodipodi="http://sodipodi.sourceforge.net/DTD/sodipodi-0.dtd"
   xmlns:inkscape="http://www.inkscape.org/namespaces/inkscape"
   width="64mm"
   height="64mm"
   viewBox="0 0 64 64"
   version="1.1"
   id="svg6409"
   inkscape:version="0.92.4 (5da689c313, 2019-01-14)"
   sodipodi:docname="technical-documentation.svg">
  <defs
     id="defs6403">
    <clipPath
       clipPathUnits="userSpaceOnUse"
       id="clipPath7022">
      <rect
         style="opacity:1;fill:#003957;fill-opacity:1;stroke:#000000;stroke-width:1.26499999;stroke-linecap:round;stroke-linejoin:round;stroke-miterlimit:4;stroke-dasharray:none;stroke-dashoffset:0;stroke-opacity:1;paint-order:markers fill stroke"
         id="rect7024"
         width="134.70384"
         height="105.83874"
         x="-127.2203"
         y="234.99347" />
    </clipPath>
    <clipPath
       clipPathUnits="userSpaceOnUse"
       id="clipPath7030">
      <rect
         style="opacity:1;fill:#003957;fill-opacity:1;stroke:#000000;stroke-width:1.26499999;stroke-linecap:round;stroke-linejoin:round;stroke-miterlimit:4;stroke-dasharray:none;stroke-dashoffset:0;stroke-opacity:1;paint-order:markers fill stroke"
         id="rect7032"
         width="134.70384"
         height="105.83875"
         x="103.70058"
         y="166.03793" />
    </clipPath>
  </defs>
  <sodipodi:namedview
     id="base"
     pagecolor="#ffffff"
     bordercolor="#666666"
     borderopacity="1.0"
     inkscape:pageopacity="0.0"
     inkscape:pageshadow="2"
     inkscape:zoom="3.959798"
     inkscape:cx="56.334016"
     inkscape:cy="140.05004"
     inkscape:document-units="mm"
     inkscape:current-layer="g7071"
     showgrid="false"
     inkscape:window-width="1920"
     inkscape:window-height="1001"
     inkscape:window-x="-9"
     inkscape:window-y="-9"
     inkscape:window-maximized="1" />
  <metadata
     id="metadata6406">
    <rdf:RDF>
      <cc:Work
         rdf:about="">
        <dc:format>image/svg+xml</dc:format>
        <dc:type
           rdf:resource="http://purl.org/dc/dcmitype/StillImage" />
        <dc:title></dc:title>
      </cc:Work>
    </rdf:RDF>
  </metadata>
  <g
     inkscape:label="Layer 1"
     inkscape:groupmode="layer"
     id="layer1"
     transform="translate(0,-233)">
    <g
       id="g7101"
       transform="translate(-2.028364,-2.6848992)"
       style="fill:#803300">
      <g
         transform="matrix(1.109631,0,0,1.109631,-0.83126153,-26.581813)"
         id="g7085"
         style="fill:#803300">
        <path
           style="fill:#003957;stroke-width:0.05292493;fill-opacity:1"
           d="m 33.856424,289.81963 c -0.51921,-0.0226 -1.05433,-0.0577 -1.18917,-0.0779 -0.47204,-0.0708 -0.92735,-0.39312 -1.14156,-0.80816 -0.0411,-0.0797 -0.12358,-0.37108 -0.18327,-0.64762 -0.0916,-0.42425 -0.61269,-3.34879 -0.72327,-4.059 l -0.0346,-0.22195 -0.51187,-0.16859 c -0.9429,-0.31055 -2.14426,-0.79979 -3.12648,-1.27323 -0.53566,-0.25819 -1.00469,-0.46944 -1.04228,-0.46944 -0.0376,0 -0.51624,0.31694 -1.06367,0.70433 -1.69178,1.19716 -2.64302,1.83302 -2.95774,1.9771 -0.27481,0.12582 -0.34217,0.13541 -0.74906,0.1067 -0.34358,-0.0242 -0.49976,-0.0624 -0.67465,-0.16492 -0.27267,-0.1598 -2.490283,-2.31721 -3.182371,-3.09598 -0.562844,-0.63334 -0.7532,-0.94892 -0.797375,-1.32191 -0.06632,-0.55997 0.146317,-0.94393 1.775867,-3.20666 l 1.105285,-1.53475 -0.414903,-0.82858 c -0.545697,-1.0898 -0.783928,-1.65921 -1.213389,-2.90019 -0.257282,-0.74345 -0.38394,-1.04074 -0.455897,-1.07008 -0.0548,-0.0224 -0.718861,-0.14996 -1.475687,-0.28357 -2.856367,-0.5043 -3.263724,-0.60443 -3.644174,-0.89571 -0.252369,-0.19322 -0.541626,-0.7252 -0.61682,-1.13441 -0.06413,-0.349 -0.06511,-2.33619 -0.0018,-3.85538 0.04247,-1.02079 0.0585,-1.14927 0.174911,-1.40251 0.364161,-0.79217 0.569129,-0.86824 3.758218,-1.39482 l 1.840161,-0.30384 0.256636,-0.79842 c 0.337339,-1.04948 0.827387,-2.25331 1.312697,-3.22471 0.389653,-0.77992 0.391833,-0.78663 0.300911,-0.92618 -0.05037,-0.0773 -0.389867,-0.55721 -0.754434,-1.06645 -1.074968,-1.50155 -1.906511,-2.798 -1.999374,-3.11721 -0.214799,-0.73834 0.03556,-1.12378 2.016527,-3.10453 1.562941,-1.56276 2.016851,-1.9069 2.593691,-1.96643 0.57517,-0.0594 0.94692,0.13942 2.73022,1.45991 0.47915,0.35481 1.11771,0.82622 1.41901,1.04758 l 0.54782,0.40248 0.987,-0.48117 c 1.07239,-0.52279 1.93849,-0.88229 3.00286,-1.24641 0.37582,-0.12856 0.71904,-0.24861 0.7627,-0.26677 0.0583,-0.0242 0.14839,-0.42856 0.33915,-1.52198 0.49,-2.80877 0.63201,-3.38558 0.92257,-3.74721 0.24498,-0.30491 0.51066,-0.42014 1.10098,-0.47755 0.68222,-0.0663 4.0341,-0.0663 4.66397,3e-5 0.5915,0.0623 0.77899,0.13505 1.09216,0.42373 0.3764,0.34695 0.44134,0.57435 0.82345,2.8835 0.19419,1.17349 0.40732,2.30176 0.44121,2.33566 0.0267,0.0267 0.96245,0.37416 1.33381,0.49527 0.75899,0.24752 1.72035,0.65198 2.60523,1.09607 0.7799,0.3914 0.92902,0.44946 1.03203,0.4018 0.0662,-0.0306 0.50147,-0.32425 0.96721,-0.65246 1.14808,-0.80907 2.18901,-1.51431 2.69838,-1.82818 l 0.422608,-0.26041 h 0.4817 c 0.46852,0 0.48992,0.005 0.78169,0.19918 0.36387,0.2416 2.75264,2.58194 3.29639,3.22957 0.52122,0.62078 0.6731,0.92357 0.67044,1.33662 -0.003,0.49244 -0.17323,0.77999 -1.84885,3.12609 -0.56355,0.78904 -1.02463,1.44757 -1.02463,1.4634 0,0.0158 0.20511,0.46579 0.4558,0.99992 0.51288,1.09276 1.0098,2.30978 1.1853,2.90292 0.0646,0.21831 0.17409,0.50889 0.24332,0.64572 0.15247,0.30136 0.10742,0.28627 1.71447,0.57426 2.83807,0.50859 3.19308,0.5978 3.54972,0.89197 0.24374,0.20105 0.50078,0.68774 0.57383,1.08649 0.0668,0.36445 0.0718,2.50877 0.009,3.97288 -0.0509,1.19406 -0.11809,1.41542 -0.54638,1.80049 -0.36809,0.33094 -0.75473,0.43217 -3.42779,0.89746 -0.77138,0.13427 -1.49522,0.26117 -1.60852,0.282 l -0.206,0.0379 -0.30242,0.87271 c -0.41568,1.19959 -0.65972,1.79023 -1.21515,2.94098 -0.26223,0.5433 -0.46084,1.01468 -0.44135,1.04752 0.0195,0.0328 0.34507,0.50031 0.72351,1.03882 1.05399,1.4998 1.76218,2.57115 1.94475,2.942 0.14363,0.29175 0.16244,0.37819 0.14246,0.65446 -0.0198,0.27368 -0.0592,0.37223 -0.28118,0.70286 -0.31309,0.46636 -3.23125,3.40158 -3.69669,3.71829 -0.27876,0.18968 -0.34828,0.21265 -0.69684,0.23026 -0.21883,0.011 -0.47232,-0.009 -0.58298,-0.0451 -0.245638,-0.0811 -1.628278,-1.00734 -3.023708,-2.02565 -0.58697,-0.42834 -1.09338,-0.7788 -1.12536,-0.7788 -0.032,0 -0.39456,0.16853 -0.80574,0.37451 -0.93395,0.46786 -1.64279,0.76055 -2.94684,1.21678 -0.56272,0.19687 -1.03448,0.3693 -1.04836,0.38318 -0.0139,0.0139 -0.12005,0.54581 -0.23594,1.18207 -0.41596,2.28364 -0.64262,3.38386 -0.74841,3.63264 -0.13746,0.32326 -0.5361,0.68397 -0.92931,0.84089 -0.2856,0.11397 -0.37831,0.12087 -1.73073,0.12873 -0.78594,0.005 -1.85378,-0.0102 -2.37298,-0.0329 z m 2.66406,-8.89227 c 2.56095,-0.22953 4.93651,-1.06462 7.0755,-2.48725 0.74064,-0.4926 1.22931,-0.8987 1.99983,-1.6619 1.05066,-1.04069 1.7306,-1.86633 2.31286,-2.80849 1.089768,-1.76334 1.797018,-3.67185 2.118178,-5.71589 0.15762,-1.0032 0.17091,-3.25738 0.025,-4.234 -0.40396,-2.7032 -1.481568,-5.20267 -3.137468,-7.27717 -0.48821,-0.61163 -1.68355,-1.8006 -2.29635,-2.28411 -1.72037,-1.3574 -3.73766,-2.35819 -5.84821,-2.90135 -1.27876,-0.32909 -4.42977,-0.47625 -5.67094,-0.26484 -5.33659,0.90897 -9.53368,4.16141 -11.57501,8.9698 -0.57155,1.3463 -0.97643,2.90161 -1.08878,4.18245 -0.0694,0.79098 -0.0708,1.98691 -0.004,2.98888 0.0685,1.02144 0.13089,1.42946 0.34444,2.25267 0.52296,2.01588 1.41673,3.84165 2.71873,5.55376 0.47759,0.62802 1.80757,1.98097 2.44091,2.48307 1.31613,1.04339 2.97458,1.95033 4.51392,2.46847 1.07302,0.36119 2.59258,0.67647 3.63652,0.75452 0.55981,0.0418 1.87182,0.0318 2.43454,-0.0186 z m -4.57801,-3.77753 c -0.78416,-0.25074 -2.13412,-0.92092 -2.33435,-1.15888 -0.12894,-0.15323 -0.13767,-0.19364 -0.11051,-0.51163 0.0162,-0.18989 0.11442,-0.7382 0.21823,-1.21847 l 0.18875,-0.87321 -0.92157,-0.92156 -0.92156,-0.92156 -0.83805,0.19954 c -1.01622,0.24196 -1.62943,0.29707 -1.83158,0.16461 -0.23113,-0.15144 -1.00554,-1.79326 -1.1501,-2.43829 -0.12031,-0.53689 0.0242,-0.70664 1.24473,-1.46157 l 0.87243,-0.53965 v -1.25634 -1.25634 l -0.5954,-0.38246 c -0.95946,-0.6163 -1.39716,-0.94757 -1.49703,-1.13301 -0.1607,-0.29841 -0.0865,-0.68323 0.32025,-1.66066 0.68103,-1.6366 0.71223,-1.65364 2.3468,-1.28198 0.38881,0.0884 0.77459,0.16073 0.85728,0.16073 0.18876,0 0.53881,-0.2909 1.41888,-1.17913 l 0.65438,-0.66045 -0.22369,-0.91935 c -0.12303,-0.50564 -0.23587,-1.0642 -0.25075,-1.24124 -0.0267,-0.31789 -0.0245,-0.32438 0.17794,-0.52172 0.33607,-0.3276 2.18854,-1.15467 2.59821,-1.16002 0.27436,-0.004 0.52424,0.25021 1.14311,1.16103 0.31488,0.46343 0.59083,0.87436 0.61321,0.91317 0.0323,0.0559 0.30761,0.0698 1.32784,0.0667 0.70793,-0.002 1.2908,-0.0101 1.29527,-0.0176 0.004,-0.008 0.24204,-0.378 0.52793,-0.82319 0.57253,-0.89153 0.8833,-1.25098 1.12804,-1.30473 0.2059,-0.0452 0.76241,0.13854 1.66126,0.54856 1.01376,0.46244 1.14226,0.54811 1.21228,0.80812 0.0687,0.25526 -0.0154,0.83875 -0.26559,1.84244 l -0.15173,0.60863 0.93659,0.94079 0.93659,0.94078 0.76586,-0.18367 c 1.14757,-0.27523 1.45435,-0.31993 1.69687,-0.24727 0.327,0.098 0.5072,0.39221 1.0253,1.67414 0.33321,0.82449 0.39836,1.12406 0.28892,1.32856 -0.0835,0.15605 -0.79007,0.69598 -1.57043,1.20009 l -0.54249,0.35043 2e-4,0.54405 c 1.1e-4,0.29922 0.0158,0.87747 0.0348,1.28499 l 0.0346,0.74095 0.7386,0.47192 c 1.30248,0.83219 1.49227,1.0401 1.36926,1.50001 -0.084,0.31418 -0.64606,1.63427 -0.89547,2.10329 -0.17146,0.32243 -0.22446,0.37952 -0.40871,0.44022 -0.26034,0.0858 -0.66997,0.0337 -1.74652,-0.22211 -0.40752,-0.0968 -0.76476,-0.16144 -0.79388,-0.1436 -0.0291,0.0178 -0.43923,0.42536 -0.91138,0.90559 l -0.85847,0.87315 0.18501,0.76698 c 0.10542,0.43703 0.19889,0.98466 0.21728,1.273 l 0.0323,0.50604 -0.15978,0.18199 c -0.26568,0.30258 -1.89925,1.034 -2.44182,1.09331 -0.5065,0.0554 -0.70757,-0.13814 -1.53817,-1.48027 l -0.38486,-0.62187 h -0.51497 c -0.28324,0 -0.87307,0.0155 -1.31073,0.0344 l -0.79575,0.0344 -0.42839,0.69487 c -0.8882,1.44069 -1.05859,1.58149 -1.67524,1.38432 z m 3.92712,-5.53642 c 1.89637,-0.23779 3.49924,-1.35871 4.37258,-3.05783 0.79774,-1.55205 0.81448,-3.29558 0.047,-4.89663 -0.79943,-1.66768 -2.19909,-2.71476 -4.12025,-3.08234 -1.07345,-0.20539 -2.54826,0.0401 -3.51066,0.58444 -1.4651,0.82861 -2.35576,1.9834 -2.79379,3.62229 -0.11626,0.435 -0.13562,0.61902 -0.13681,1.30057 -0.001,0.69776 0.0159,0.85794 0.14089,1.32312 0.26821,0.99773 0.76871,1.86573 1.49403,2.59105 1.21743,1.21743 2.89248,1.81777 4.50702,1.61533 z"
           id="path7059"
           inkscape:connector-curvature="0" />
        <g
           id="g7071"
           style="fill:#ffffff;stroke:#003957;stroke-opacity:1">
          <path
             inkscape:connector-curvature="0"
             id="rect6954"
             d="M 4.2187494,240.81384 H 37.480655 v 48.75893 H 4.2187494 Z"
             style="opacity:1;fill:#ffffff;fill-opacity:1;stroke:#003957;stroke-width:0.89999998;stroke-linecap:round;stroke-linejoin:round;stroke-miterlimit:4;stroke-dasharray:none;stroke-dashoffset:0;stroke-opacity:1;paint-order:markers fill stroke" />
          <g
             id="g7107"
             transform="translate(0,-1.6402112e-6)">
            <path
               style="fill:#ffffff;stroke:#003957;stroke-width:1.26499999;stroke-linecap:round;stroke-linejoin:miter;stroke-miterlimit:4;stroke-dasharray:none;stroke-opacity:1"
               d="M 7.6532694,247.85482 H 34.046135"
               id="path6989"
               inkscape:connector-curvature="0" />
            <path
               inkscape:connector-curvature="0"
               id="path6991"
               d="M 7.6532694,251.3516 H 34.046135"
               style="fill:#ffffff;stroke:#003957;stroke-width:1.26499999;stroke-linecap:round;stroke-linejoin:miter;stroke-miterlimit:4;stroke-dasharray:none;stroke-opacity:1" />
            <path
               style="fill:#ffffff;stroke:#003957;stroke-width:1.26499999;stroke-linecap:round;stroke-linejoin:miter;stroke-miterlimit:4;stroke-dasharray:none;stroke-opacity:1"
               d="M 7.6532704,254.84838 H 34.046134"
               id="path6993"
               inkscape:connector-curvature="0" />
            <path
               inkscape:connector-curvature="0"
               id="path6995"
               d="M 7.6532704,258.34516 H 34.046134"
               style="fill:#ffffff;stroke:#003957;stroke-width:1.26499999;stroke-linecap:round;stroke-linejoin:miter;stroke-miterlimit:4;stroke-dasharray:none;stroke-opacity:1" />
          </g>
          <g
             id="g7119">
            <path
               style="fill:#ffffff;stroke:#003957;stroke-width:1.26499999;stroke-linecap:round;stroke-linejoin:miter;stroke-miterlimit:4;stroke-dasharray:none;stroke-opacity:1"
               d="M 7.6532704,275.07061 H 34.046134"
               id="path7003"
               inkscape:connector-curvature="0" />
            <path
               inkscape:connector-curvature="0"
               id="path7005"
               d="M 7.6532704,279.07735 H 34.046134"
               style="fill:#ffffff;stroke:#003957;stroke-width:1.26499999;stroke-linecap:round;stroke-linejoin:miter;stroke-miterlimit:4;stroke-dasharray:none;stroke-opacity:1" />
            <path
               style="fill:#ffffff;stroke:#003957;stroke-width:1.26499999;stroke-linecap:round;stroke-linejoin:miter;stroke-miterlimit:4;stroke-dasharray:none;stroke-opacity:1"
               d="M 7.6532704,283.296 H 34.046134"
               id="path7007"
               inkscape:connector-curvature="0" />
          </g>
        </g>
      </g>
      <g
         id="g7114"
         transform="translate(0,0.8654278)">
        <path
           style="fill:#ffffff;stroke:#003957;stroke-width:1.26499999;stroke-linecap:round;stroke-linejoin:miter;stroke-miterlimit:4;stroke-dasharray:none;stroke-opacity:1"
           d="m 7.9175499,262.92117 15.1675461,-0.0668"
           id="path6997"
           inkscape:connector-curvature="0"
           transform="matrix(1.109631,0,0,1.109631,-0.8312614,-26.581814)" />
        <path
           style="fill:#ffffff;stroke:#003957;stroke-width:1.26499999;stroke-linecap:round;stroke-linejoin:miter;stroke-miterlimit:4;stroke-dasharray:none;stroke-opacity:1"
           d="m 7.9175499,269.00155 15.1675441,-0.0668"
           id="path7001"
           inkscape:connector-curvature="0"
           transform="matrix(1.109631,0,0,1.109631,-0.8312614,-26.581814)" />
        <path
           inkscape:connector-curvature="0"
           id="path6999"
           d="m 8.719359,268.53349 15.167544,-0.0668"
           style="fill:#803300;stroke:#003957;stroke-width:1.26499999;stroke-linecap:round;stroke-linejoin:miter;stroke-miterlimit:4;stroke-dasharray:none;stroke-opacity:1" />
      </g>
    </g>
  </g>
</svg>
